<svg xmlns:svg="http://www.w3.org/2000/svg" xmlns="http://www.w3.org/2000/svg" width="320" height="240" viewBox="0 0 800 600" version="1.1">
  <defs>
    <linearGradient id="myGradientInit">
      <stop offset="5%" stop-color="#a0a0a0" />
      <stop offset="95%" stop-color="#b7b7b7" />
    </linearGradient>
    <linearGradient id="myGradient" gradientTransform="rotate(35)">
      <stop offset="5%" stop-color="#5f1a1a" />
      <stop offset="60%" stop-color="#d41212" />
      <stop offset="61%" stop-color="#5f1a1a" />
      <stop offset="62%" stop-color="#5f1a1a" />
      <stop offset="64%" stop-color="#d41212" />
      <stop offset="95%" stop-color="#5f1a1a" />
    </linearGradient>
    <mask id="myMask" maskUnits="userSpaceOnUse" x="0" y="0" width="800" height="600">
      <path transform="translate(0,-452.36216)" fill="white" d="m110.5 714.3c4.2-14.1 5.7-28.7 7-43.2 0.9-15.8 2-31.7 1.3-47.5-0.4-8.7-0.8-10.9-1.9-19.2-0.8-5.6-2.3-11.2-4.6-16.5-1-2.4-2.4-4.8-3.5-7.2-0.3-1.2-1-3.7 0.7-4.6 18.5-9.9 15.5-9.9 27.7-12 10.1-1.4 19.8-3.9 29.5-6.7 11.7-3.4 23.4-6.8 34.7-11.3 5.4-2.1 16.2-6.9 21.4-9.1 3.6-1.7 7.3-3.2 10.7-5.1 2.8-1.6-7.1 6.5-9 4.1 0 0 14-7.9 15.1-8.5 25-12.4 15.3-12.2 28.3-11.8 0.7 1 1.8 1.9 2.1 3 0.8 2.9-1 8-2 10.4-3.8 8.8-9.9 16.7-15.8 24.6-11.5 14.5-24.7 27.9-39.7 39.9-7.3 5.9-13.8 10.4-21.4 15.9-6.6 4.3-12.9 9.3-20.2 12.9-14 7-19.1 11.4-31.9 13.6-4.1 0.4-8.3 0.3-12.4-0.4-4.5-1.4-7.5-4.5-10.1-7.8-6.2-12.2 9.4-13.3 22.1-19.6 6.8-1.2 12.7-0.9 19.4 0.6 6.3 1.9 11 5.7 14.1 10.7 0.7 1.2 1.3 2.4 1.9 3.6 0.5 1.6 1.2 3.2 1.6 4.8 1.3 4.4 2.2 9.3 3.2 13.7 2.1 9.7 4.3 19.3 6.6 28.9 2.9 11.7 6.9 23.2 11.1 34.6 0 0-19.9 9.2-19.9 9.2l0 0c-3.6-11.7-7.3-23.3-10.3-35.1-2.4-9.5-4.8-19.1-7.3-28.6-1.3-4.9-2.1-8.5-3.7-13.2-0.5-1.5-1.2-3-1.8-4.5-0.6-1.1-1.1-2.3-1.8-3.3-2.9-4.5-7.4-7.9-13.3-9.3-6.2-1.1-12.7-1.4-18.7 0.8 6.3-3.2 12.6-6.5 18.9-9.7 0.4-0.2-0.9 0.4-1.3 0.7-1.6 1.4-0.7 3.8 0 5.3 2.3 2.9 4.9 5.6 9.1 6.3 3.9 0.3 7.7 0.7 11.6 0 9-2 16.6-6.6-8.7 5.8-2 1 3.9-2 5.8-3 5.6-3.2 10.6-6.6 16-10.1 8.3-5.8 14-9.6 22-15.9 14.8-11.7 27.9-24.8 39.1-39.2 4.5-6.2 7.8-10.4 11.4-16.9 2.3-4 5.7-10.7 5.4-15.4 0-0.4-0.4-0.8-0.7-1.2-8.1 0.9-4.2 0.8 12.3-7.3 2.4-1.2-4.8 2.5-7.1 3.8-20.9 11.6 4-1.1-37.1 19.1-3.5 1.7-7.1 3.3-10.7 5-6.3 2.7-15.4 6.7-21.9 9.3-11.5 4.5-23.5 7.9-35.4 11.6-5 1.5-7.7 2.4-12.7 3.5-5.8 1.4-11.8 2.4-17.7 3.5-1 0.2-2 0.4-3 0.7-0.8 0.2-2.9 1.1-2.2 0.7 6.3-3.3 12.8-6.4 19.1-9.7 0.4-0.2-1 0.1-1.4 0.4-0.9 0.5-0.6 1.4-0.6 2.1 0.9 2.6 2 5 2.9 7.6 1.9 5.7 3.1 11.5 3.6 17.4 0.7 7.9 1.2 11.6 1.4 19.7 0.4 15.9-0.7 31.7-1.1 47.6-0.8 14.2-1.8 28.4-4.6 42.4 0 0-21.8 9-21.8 9zM233.6 661.3 233.6 661.3 233.6 661.3 233.6 661.3c6.3 1.5 12.8 2.1 19.2 2.9 9.1 1.8 18 3.9 27.1 5.3 3.1 0.4 6.3 0.7 9.4 0.9 0.8 0 1.7 0.2 2.5 0.1 1.5-0.1 3.4-0.9 4.7-1.4-35.4 16.5-18.9 11.4-14.7 5 1.9-2.9 2.5-6 3.1-9.2 1.6-8.8 0.3-17.6-3.7-25.8-0.8-1.7-1.9-3.4-2.8-5-4.1-6-9.8-11.4-17.7-13.9-1.2-0.4-2.4-0.6-3.6-0.9-3.9-0.6-7.6-0.4-11.2 1-1.4 0.6-5.5 2.6-4.1 2 16.7-7.6 20.1-10.3 9.9-3.5-7.6 5.5-13.6 12.4-17.2 20.4-2.3 4.9-2.7 7.2-4 12.3-1.2 6.9-2.9 14.4-0.5 21.4 0.3 0.9 0.8 1.8 1.2 2.7 3.7 6.6 9.7 10.4 16.9 13.9 12.1 5.1 25.7 6.5 38.9 8 7.5 0.8 15.1 1.1 22.7 1.3 0 0-18.9 11.5-18.9 11.5l0 0c-7.4-0.5-14.8-1.1-22.2-1.8-13.7-1.4-27.9-2.6-40.4-8.1-7.8-3.9-13.9-7.9-18-15-1.2-2.6-1.8-3.5-2.2-6.4-1-6.3 0.4-12.9 1.7-19.1 1.2-4.9 1.8-7.9 3.8-12.7 3.5-8.1 9.1-15.3 16.6-21.2 12-8.5 5.6-4.4 30-16.3 5.2-2.6 10.8-3.1 16.5-1.8 1.3 0.4 2.5 0.7 3.8 1.1 8.1 3 13.8 9 18 15.3 1 1.7 2 3.5 2.9 5.2 4.1 8.4 5.9 17.4 4.8 26.4-0.6 4.3-1.2 8.6-3.9 12.3-5 6.9-20.1 11-24.8 13.3-0.8 0.2-1.7 0.4-2.5 0.6-4.8 0.7-9.8-0.7-14.5-1.2-9.1-1.5-17.9-3.8-27.1-5.2-6.7-0.7-13.4-1.5-20-2.7 0 0 20.1-11.8 20.1-11.8zM338.2 655.7c3.9 6.7 8.8 13 13.5 19.3 8.2 9.8 14.3 20.9 23 30.4 6.1-5.8-5.8 5.7-20.6 7.8-2.1 0.3-1-3.4-1.6-5.1-0.9-2.6-2-5.2-3-7.9-7.5-18.8-0.9-1.3-8.7-22.4-1.4-4.6-2.9-9.1-4.2-13.7-4.8-17.6-8.6-35.9-9.2-54-0.1-3.4 0.1-6.8 0.2-10.2 1.1-6.5 1.7-13.7 6.3-19.3 1.1-1.3 2.3-2.5 3.8-3.4 21.4-11.7 16.1-10.1 29.2-13.2 6-0.7 12.4-0.6 17.7 2.3 3.3 1.8 5.6 4.2 8.2 6.7 1.5 1.8 3.1 3.5 4.4 5.4 8.5 12.3 12.4 26.8 14.9 40.8 0.9 4.8 1.4 9.7 2.1 14.6 2 20.6 1 41.5-4.5 61.7-3.2 11.8-5.5 16.1-10.4 27.3-6.2 12.9-13.8 25.2-21.3 37.5 0 0-20.5 7.8-20.5 7.8l0 0c8.2-12.4 16.3-24.8 22.9-37.9 5.2-11.4 7.4-15.1 10.8-27.2 5.8-20 7-40.7 4.7-61.1-0.8-4.8-1.4-9.6-2.4-14.3-2.8-13.6-7-27.6-16-39.3-1.4-1.8-3.1-3.4-4.6-5-2.8-2.3-4.6-4.2-8-5.8-5.1-2.4-11.1-2.2-16.6-1.2-7.9 2.5-14.3 4.8 11.1-6.5 1.6-0.7-3 1.7-4.2 2.9-5.4 5.2-6.5 12.5-8 19-0.3 3.4-0.7 6.8-0.8 10.2-0.3 17.6 3.5 36.8 8.5 53.9 1.3 4.5 3 9 4.5 13.4 5.8 13.8 3.6 9.3 9.8 21.8 1.2 2.5 2.5 5 3.8 7.6 0.8 1.7 3.9 3.6 2.5 5-16.6 17-14.8 18.1-21.2 12.1-6.9-10.5-13.9-21-22.3-30.7-5.1-6.2-10.2-12.4-14.9-18.8 0 0 21.2-10.4 21.2-10.4zM611.5 635.3c-0.6 10.6-0.7 21.2-0.8 31.7-0.2 7.9-0.8 15.8-1 23.7-0.1 2.2-0.2 9.1 0.1 11.6 0.1 1.1 0.6 2.2 0.8 3.3 7.5 2.8 6.2 2-17.8 8.3-1.8 0.5 2.6-2.4 3.7-3.7 1.6-2 2.9-4.2 4.3-6.3 5.1-8.1 5.8-10.1 10.3-18.8 10.7-22.3 17.2-45.7 24.4-68.9 1.2-3.8 2.8-9.7 5.3-13.4 4.7-7 26.8-10.6 27.6-10.7 2.9-0.2 3.7 3.8 5.1 5.9 2 2.9 3.5 6 5.2 9 6 13.5 10.4 27.6 13.7 41.8 2.8 12.3 4.5 21.1 4.8 33.7 0.1 5.6-0.4 11.2-0.6 16.8-2.2 15.4-7.1 28.9-17.1 41.9-6.2 8-10.4 11.1-18 17.7 0 0-20 7-20 7l0 0c8-6.5 12.5-9.5 19-17.5 6.6-8 11.4-16.5 14.6-25.9 1.7-5.1 2.5-10.3 3.7-15.5 0.3-5.6 0.9-11.1 0.8-16.7-0.2-12.3-2-21.4-4.9-33.3-3.4-13.9-8.1-27.6-14.9-40.6-1.9-2.8-3.5-5.7-5.7-8.3-1.5-1.7-6.6-2.8-5.3-4.6 3.7-5 11.2-7.1 16.7-10.8 1.2-0.8-2.8 1.1-3.8 2.1-3.2 3.4-5.1 9.9-6.5 13.6-7.9 23.1-14.4 46.6-24.5 69.2-4.5 9.5-4.4 9.8-9.2 18.6-1.1 2.1-2.3 4.2-3.6 6.3-0.9 1.4-1.1 3.3-2.7 4.2-7.5 4.2-15.5 7.7-23.9 10.5-0.8 0.3-1.1-1.2-1.6-1.9-0.2-1.2-0.5-2.5-0.6-3.7-0.1-2.2 0.3-10.2 0.4-11.9 0.4-7.9 1-15.7 1-23.6-0.1-10.4-0.2-20.7-0.8-31.1 0 0 21.7-9.4 21.7-9.4zM530.4 669.5c-1.1-4.9-2.9-9.8-5.8-14.1-0.9-1.4-2-2.7-3-4.1-9.7-10.9-20.2-21.6-32.7-30.4-2.7-1.9-5.7-3.7-8.5-5.5-6.3-3.8-12.9-7.2-19.8-10-2.2-0.9-5.3-2-7.8-2.4-0.9-0.1-1.9-0.1-2.8-0.1-10.1 4.8 12.3-5.9 16.3-7.5 1-0.4-1.4 1.4-2 2.1-2.5 3.6-2.9 7.9-3.6 12-2.4 15.7 0.1 31.4 6.1 46.3 1.5 3.6 3.3 7.2 4.9 10.8 4.8 9.5 10.6 18.6 17.7 27.1 2.7 3.2 6.5 7.4 10.1 10 1.3 0.9 2.9 1.6 4.3 2.4 1.2 0.2 2.5 0.7 3.7 0.5 1.2-0.2 4.5-1.9 3.4-1.5-5.6 2.3-10.6 6-16.7 7-2.2 0.4 2.6-3.2 3.7-4.9 3-4.9 4.4-9.6 6.4-14.8 5.1-16.1 7.7-32.6 9.1-49.2 1.3-10.6 3.3-8.8 23.2-14.9 1.1-0.3 1.3 1.7 1.8 2.5 2.1 3.4 2.4 4.5 4.1 8.3 3.8 8.8 7.3 17.7 11.9 26.2 3.3 6 4.6 7.7 8.3 13.5 3.9 5.9 8.4 11.4 13.8 16.4 0 0-20.3 10.4-20.3 10.4l0 0c-5-5.4-9.2-11.2-13-17.3-3.9-6.1-4.8-7.3-8.4-13.6-4.7-8.5-8.5-17.3-12.7-26-1.8-3.7-2-4.5-4.5-7.6-0.3-0.4-1.7-0.8-1.2-1.1 6.4-3.9 13.4-6.9 20.1-10.3-0.4 0.4-1.1 0.8-1.3 1.3-0.5 1.1-0.7 2.3-1 3.4-2.8 16.7-5 33.5-9.7 49.9-1.8 5.5-3 9.7-5.5 14.9-0.9 1.8-1.2 4.1-3 5.3-7.4 5-15.7 9-23.9 13-1.2 0.6-2.8 0.7-4.2 0.5-1.4-0.1-2.6-0.8-3.9-1.3-1.4-1-2.9-1.8-4.2-2.9-3.5-3-6.9-7.3-9.5-10.7-6.7-8.8-12.4-18.1-17.3-27.7-1.7-3.6-3.6-7.2-5.1-10.9-6.2-14.9-9.4-30.5-8.1-46.3 0.3-3.3 0.4-6.1 1.3-9.3 2.9-10.4 16-16.9 28.4-17.9 1 0.2 2 0.3 3 0.5 2.5 0.6 5.3 1.9 7.6 3 6.7 3.2 13 6.8 19.1 10.8 2.8 1.9 5.7 3.7 8.4 5.7 7.2 5.2 9.9 7.6 16.4 13.3 3.9 3.4 9.3 8.3 13.1 12 1.6 1.6 3.1 3.2 4.7 4.9 1.1 1.4 2.4 2.7 3.4 4.2 3.2 4.4 5 9.3 6.7 14.2 0 0-21.4 9.9-21.4 9.9zM125 919.5c0.9-10.2 3.2-85.3 2.4-95.5-1.2-14.1-1.4-28.2-1.5-42.3 0.8-9.2-2.1-19 1.1-28.1 0.3-0.9 0.8-1.7 1.2-2.6 7.8-10.1 3.9-5.7 33.5-16.5 1.4-0.5 2.7 0.9 4.1 1.5 1.9 0.8 3.6 1.8 5.4 2.8 6.4 3.5 9.5 5.6 15.9 9.6 28.5 18.3 56 37.6 82.9 57.4 25.1 18.3 47.1 39.4 70 59.6 4.7 4.7 13.6 9.8 11.1 17.2-1.8 5.2-7.5 8.1-12.6 10.6-13.1 6.2-26.4 11.9-39.7 17.8-40.6 11.6-83.8 13-126.1 14.7-35.4 0.9-70.9 1.6-106.3 1-12.5-0.2-38-1.1-50.7-1.5l23.6-14.4c18.1 0.7 32 1.4 50.3 1.7 35.5 0.6 71-0.2 106.5-1.3 43.1-2 87-3.9 127.8-16.9-5.2 3-10.8 5.6-15.7 8.9-4.4 3 10.1-3.6 13-7.8 2.7-4 0.3-6.3-2.5-9.6-1.8-2.2-4-4.1-6-6.2-21.6-20.9-43.2-42-68-60.3-27.2-19.8-55.1-39-84.7-56.2-5.6-3.1-10.7-6.2-16.7-8.8-1.8-0.8-3.6-1.5-5.5-2-1.1-0.3-4.4 0.2-3.5-0.3 8-4.8 37.4-19.7 25.2-12.9-0.6 0.7-1.3 1.4-1.7 2.1-4.5 7.5-2 19.6-2.7 27.8 0.2 14 0.6 28 1.8 42 0.9 10.1 0.4 83.6 0.5 93.8zM361.2 925.5c7.1-10.9 11.1-23 14.7-35 4.3-16.8 5.4-33.9 5.7-51.1 0.3-5.6 0-11.1-1.8-16.6 0 0 29.9-13.8 29.9-13.8l0 0c1.8 5.9 2 11.7 1.3 17.8-1 17.3-1.9 34.7-5.7 51.7-3.2 11.9-7.1 23.8-12.6 35.1 0 0-31.5 11.9-31.5 11.9zM374 816c-7.4-5.4-15.8-9.6-24-14-4-2.5-10.8-4.8-11.9-9.6-0.1-0.6 0-1.3 0-2 10-15 30.3-16.1 47.2-18 8.9-0.9 17.8-1.2 26.7-1.4 5.5-0.2 11-0.2 16.4-0.2 3.1 0 7.5 0.2 8.9 3.1 0.3 0.6 0.3 1.3 0.5 1.9-0.3 3.1-3.7 4.3-6.5 5.8-3.5 1.9-2.3 1.2-5.8 3.3-5.3 3.3-10.5 6.8-14.1 11.6 0 0-31.4 12-31.4 12l0 0c2.8-5.5 8.3-9.3 13.7-12.9 4-2.6 8.1-5.2 12.9-6.6 3-0.4-6.2-1.5-6.2-0.9-5.3 0-10.7 0-16 0.1-8.8 0.2-17.7 0.6-26.5 1.7-3.7 0.4-7.5 0.7-11.1 1.4-1 0.2-3.8 1.1-2.9 0.7 26.4-14 38.2-13.3 25.5-13.7-0.4 0.1-0.9-0.1-1.1 0.2-1.5 1.8 8.7 7.5 9.9 8.2 8.3 4.6 16.7 9 24.8 13.8 0 0-29.2 15.7-29.2 15.7zM609.6 834c-10.5-0.5-20.9-1-31.4-1.2-8.9-0.1-17.9-0.5-26.8 0-1.8 0.2-5.2 0.6-6.9 1.2-0.9 0.3-3.4 1.8-2.5 1.4 9.2-4.3 18.1-8.9 27.3-13 0.6-0.3-0.9 0.9-1.1 1.4-0.2 0.6 0.1 1.2 0.1 1.8 0.8 0.9 1.3 2 2.3 2.8 6.1 5.2 17.8 9.6 25.4 12.5 15.8 5.9 18.3 6.1 35.6 10.8 22.2 5.4 44.5 10.3 66.8 14.9 1.1 0.2 29.1 5.7 32.7 6.9 2.6 0.8 4.7 2.4 7.1 3.6-0.3 1.9 1.1 4.7-0.8 5.8-12.1 7.5-25.4 13.5-38.9 18.8-5 2-46.7 8.4-47.1 8.5-43.8 7.4-31 5.3-77.4 14.8-67.8 15.5-134.9 33.5-200.3 55.2-39 12.9-57.6 20.4-95.3 34.6-50.1 20.3-26.3 10.2-71.4 30 0 0 20.6-14 20.6-14l0 0c43.3-18.5 20.4-9 68.8-28.1 36.9-13.7 56-21.1 94.1-33.7 66.4-21.8 134.3-40.3 202.8-56.5 14.3-3.1 28.5-6.3 42.8-9.3 3.5-0.7 59.9-11.5 67.2-13.1 6.8-1.5 16.5-10.3 20.2-5.3 2.8 3.8-26.4 15.5-13.3 7.4-1.8-1.2-3.2-2.8-5.3-3.6-5.6-2.3-26.7-6.9-30.9-7.8-22.4-5-44.9-9.7-67.3-14.8-17.1-4.3-21.4-5-37.4-10.3-8.7-2.9-21.1-7-28.1-12.7-1.3-1.1-2.3-2.5-3.4-3.7-0.3-1-0.8-2-0.9-3-1.1-11.6 30.8-18.7 31.5-19 2.9-1.5 6.9-1.2 10.1-1.6 8.9-0.2 17.8 0.2 26.6 0.4 10.7 0.4 21.4 1 32.1 0.7 0 0-27.9 17.2-27.9 17.2zM515.9 872.7c-1.1-4.9-2.9-9.8-5.8-14.1-0.9-1.4-2-2.7-3-4.1-9.7-10.9-20.2-21.6-32.7-30.4-2.7-1.9-5.7-3.7-8.5-5.5-6.3-3.8-12.9-7.2-19.8-10-2.2-0.9-5.3-2-7.8-2.4-0.9-0.1-1.9-0.1-2.8-0.1-10.1 4.8 12.3-5.9 16.3-7.5 1-0.4-1.4 1.4-2 2.1-2.5 3.6-2.9 7.9-3.6 12-2.4 15.7 0.1 31.4 6.1 46.3 1.5 3.6 3.3 7.2 4.9 10.8 4.8 9.5 10.6 18.6 17.7 27.1 2.7 3.2 6.5 7.4 10.1 10 1.3 0.9 2.9 1.6 4.3 2.4 1.2 0.2 2.5 0.7 3.7 0.5 1.2-0.2 4.5-1.9 3.4-1.5-5.6 2.3-10.6 6-16.7 7-2.2 0.4 2.6-3.2 3.7-4.9 3-4.9 4.4-9.6 6.4-14.8 5.1-16.1 7.7-32.6 9.1-49.2 1.3-10.6 3.3-8.8 23.2-14.9 1.1-0.3 1.3 1.7 1.8 2.5 2.1 3.4 2.4 4.5 4.1 8.3 3.8 8.8 7.3 17.7 11.9 26.2 3.3 6 4.6 7.7 8.3 13.5 3.9 5.9 8.4 11.4 13.8 16.4 0 0-20.3 10.4-20.3 10.4l0 0c-5-5.4-9.2-11.2-13-17.3-3.9-6.1-4.8-7.3-8.4-13.6-4.7-8.5-8.5-17.3-12.7-26-1.8-3.7-2-4.5-4.5-7.6-0.3-0.4-1.7-0.8-1.2-1.1 6.4-3.9 13.4-6.9 20.1-10.3-0.4 0.4-1.1 0.8-1.3 1.3-0.5 1.1-0.7 2.3-1 3.4-2.8 16.7-5 33.5-9.7 49.9-1.8 5.5-3 9.7-5.5 14.9-0.9 1.8-1.2 4.1-3 5.3-7.4 5-15.7 9-23.9 13-1.2 0.6-2.8 0.7-4.2 0.5-1.4-0.1-2.6-0.8-3.9-1.3-1.4-1-2.9-1.8-4.2-2.9-3.5-3-6.9-7.3-9.5-10.7-6.7-8.8-12.4-18.1-17.3-27.7-1.7-3.6-3.6-7.2-5.1-10.9-6.2-14.9-9.4-30.5-8.1-46.3 0.3-3.3 0.4-6.1 1.3-9.3 2.9-10.4 16-16.9 28.4-17.9 1 0.2 2 0.3 3 0.5 2.5 0.6 5.3 1.9 7.6 3 6.7 3.2 13 6.8 19.1 10.8 2.8 1.9 5.7 3.7 8.4 5.7 7.2 5.2 9.9 7.6 16.4 13.3 3.9 3.4 9.3 8.3 13.1 12 1.6 1.6 3.1 3.2 4.7 4.9 1.1 1.4 2.4 2.7 3.4 4.2 3.2 4.4 5 9.3 6.7 14.2 0 0-21.4 9.9-21.4 9.9z"/>
    </mask>
  </defs>
  <g mask="url(#myMask)">
    <rect x="0" y="0" width="800" height="600" fill="url(#myGradientInit)" />
    <rect id="logo-gradient" x="0" y="0" width="800" height="600" fill="url(#myGradient)" />
  </g>
</svg>
