<svg xmlns="http://www.w3.org/2000/svg" xmlns:xlink="http://www.w3.org/1999/xlink" version="1.2" baseProfile="tiny" x="0px" y="0px" width="81px" height="81px" viewBox="0 0 81 81" xml:space="preserve"><style>.style0{fill-rule:	evenodd;fill:	#CCCCCC;}.style1{fill:	#336699;}.style2{fill-rule:	evenodd;fill:	#336699;}</style><path d="M11.9 40.4c0 15.7 12.7 28.5 28.5 28.5s28.5-12.7 28.5-28.5S56.1 11.9 40.4 11.9 S11.9 24.7 11.9 40.4z M80.9 40.4c0 22.4-18.1 40.5-40.5 40.5S-0.1 62.7-0.1 40.4S18-0.1 40.4-0.1S80.9 18 80.9 40.4z" class="style0"/><g><path d="M61 45.5c0.1 0.5 0.2 0.9 0.3 1.5c0.8 4.5 1.7 8.6 2.5 12.1c-5.5 6.9-14 11.3-23.5 11.3 c-5.7 0-11-1.6-15.5-4.3l-0.7-2c0.3-0.3 0.4-0.5 0.2-0.9c-0.3-1-0.8-2.7-0.8-2.7l-0.8 0.4l-2.3-1.1l-0.3-3.1l2.9-3.1l-0.1-0.7 l3.3-4.5l1.2-0.8l0 0l0 0c0.1-1.1 0.2-1.7 0.4-2.8c0.2-0.8 0.4-1.9 0.4-1.9s0-1.9 0.5-3.6c0.5-1.9 1.6-3.9 1.6-3.9s2.7 0.7 4.5-0.2 c1-0.5 2.2-1.8 2.2-1.8s-0.2-0.6-0.5-0.9c-0.3-0.6-1.1-1.5-1.1-1.5s1.8-1.1 3.1-1.7c0.7-0.3 1.1-0.5 1.8-0.7l-1 0l-0.3-0.7l0.2-0.6 L39 26.6l0.2-0.5l-0.3-0.2l0-0.7c0 0-3.4-1.8-3.4-3.3c0-0.9 3.2-1.8 3.2-1.8l0.3-2.2c0.5-0.3 0.8-0.4 1.3-0.6 c0.2-0.1 0.5-0.2 0.5-0.2s0.2-0.8 0.2-1.3c0.1-0.7 0.1-1.8 0.1-1.8s0.9-1 3.5-0.8c1.5 0.1 2.8 0.9 2.8 0.9S47.2 16 47.2 17 c0 1 0 2.4 0 2.4S52 21 52 23.8c0 1.2-1.8 1.8-1.8 1.8s0.7 0.6 1.1 1.1c0.6 0.8 1.3 1.9 1.3 1.9s-1-0.1-1.9 0 c-0.7 0.1-1.1 0.2-1.1 0.2s2.2 0.7 3.5 1.3c1.3 0.6 3.1 1.8 3.1 1.8S59.2 36.3 61 45.5z" class="style1"/><path d="M37 51.4c0-0.2-0.2-0.3-0.3-0.3c-0.2 0-0.3 0.1-0.3 0.3c0 0.2 0.2 0.3 0.3 0.3 C36.9 51.7 37 51.5 37 51.4z M36.9 49.7c0-0.2-0.1-0.3-0.3-0.3c-0.2 0-0.3 0.1-0.3 0.3c0 0.2 0.1 0.3 0.3 0.3 C36.8 50 36.9 49.8 36.9 49.7z M36.9 47.9c0-0.2-0.1-0.3-0.3-0.3c-0.2 0-0.3 0.1-0.3 0.3c0 0.2 0.1 0.3 0.3 0.3 C36.8 48.2 36.9 48.1 36.9 47.9z M37 46.2c0-0.2-0.1-0.3-0.3-0.3c-0.2 0-0.3 0.1-0.3 0.3c0 0.2 0.1 0.3 0.3 0.3 C36.8 46.5 37 46.3 37 46.2z M37.1 44.4c0-0.2-0.1-0.3-0.3-0.3c-0.2 0-0.3 0.1-0.3 0.3c0 0.2 0.1 0.3 0.3 0.3 C36.9 44.7 37.1 44.6 37.1 44.4z M37.3 42.6c0-0.2-0.1-0.3-0.3-0.3c-0.2 0-0.3 0.1-0.3 0.3c0 0.2 0.1 0.3 0.3 0.3 C37.2 42.9 37.3 42.8 37.3 42.6z M37.7 40.8c0-0.2-0.1-0.3-0.2-0.4c-0.2 0-0.3 0.1-0.4 0.2c0 0.2 0.1 0.3 0.2 0.4 C37.5 41.1 37.6 41 37.7 40.8z M38 39c0-0.2-0.1-0.3-0.2-0.4c-0.2 0-0.3 0.1-0.4 0.2c0 0.2 0.1 0.3 0.2 0.4 C37.8 39.3 38 39.2 38 39z M38.5 37.2c0-0.2-0.1-0.3-0.2-0.4c-0.2 0-0.3 0.1-0.4 0.2c0 0.2 0.1 0.3 0.2 0.4 C38.3 37.4 38.5 37.3 38.5 37.2z M39 35.3c0-0.2 0-0.3-0.2-0.4c-0.2-0.1-0.3 0-0.4 0.2c0 0.2 0 0.3 0.2 0.4 C38.8 35.6 39 35.5 39 35.3z M37 53.2c0-0.2-0.1-0.3-0.3-0.3c-0.2 0-0.3 0.1-0.3 0.3c0 0.2 0.1 0.3 0.3 0.3 C36.9 53.5 37 53.4 37 53.2z M37.1 55c0-0.2-0.2-0.3-0.3-0.3c-0.2 0-0.3 0.1-0.3 0.3c0 0.2 0.2 0.3 0.3 0.3 C37 55.3 37.1 55.1 37.1 55z M37.2 56.7c0-0.2-0.2-0.3-0.3-0.3c-0.2 0-0.3 0.2-0.3 0.3c0 0.2 0.2 0.3 0.3 0.3 C37.1 57 37.3 56.9 37.2 56.7z M37.5 58.4c0-0.2-0.2-0.3-0.3-0.2c-0.2 0-0.3 0.2-0.3 0.3c0 0.2 0.2 0.3 0.3 0.2 C37.4 58.7 37.5 58.6 37.5 58.4z M35.6 46.2c1-8.5 2.7-11.7 2.7-11.7s1.6-0.4 2.6-0.5c1.3-0.1 3.6 0 3.6 0s-0.7 2.8-1.2 5.2 c-0.4 1.8-0.7 2.9-1.1 4.6l-0.7 0.3l-0.3 0.8l0.2 0.4l-0.3 0.3l-0.3 0.8c0 0 0.1 0.4 0.3 0.7c0.1 0.2 0.4 0.4 0.4 0.4l0.3 0.7 c0 0 0.7 0.4 1.2 0.6c0.6 0.2 1.6 0.4 1.6 0.4s0.6-0.3 1.1-0.4c0.4-0.1 1-0.2 1-0.2s0.1 0.4 0.1 0.6c0.1 0.5 0.5 2 0.5 2 s-0.7 1.2-1.8 2.8c-3.5 5.1-8.7 7.6-8.7 7.6S34.9 52.4 35.6 46.2z M39.4 25.9l-0.3-0.2c0-0.1 0-0.2 0-0.4c0-0.2 0-0.3 0-0.6 l0.4 0.2l-0.1 0.3l0.2 0.1l0.2-0.2c0-0.1-0.1-0.2-0.1-0.3c0-0.1 0.1-0.3 0.1-0.3s0.3 0.1 0.4 0c0.2 0 0.3-0.2 0.3-0.2l-0.2 0 c-0.1-0.1-0.2-0.1-0.3-0.1c-0.2-0.1-0.4-0.1-0.6 0c0 0.1-0.1 0.2-0.1 0.2c-0.2 0.2-0.4 0.1-0.6-0.1c-0.1-0.1-0.1-0.2-0.1-0.2 c0.1-0.2 0.2-0.3 0.3-0.5c0.2-0.3 0.3-0.5 0.5-0.9c0.1-0.1 0.2-0.1 0.4-0.1c0.2 0 0.4 0.1 0.5 0.3c0.3 0.8 0.9 0.8 1.2 0.7 c-0.1 0-0.3-0.1-0.4-0.2c-0.2-0.1-0.3-0.3-0.3-0.3s0.2 0 0.3 0c0.5 0 0.8 0 1.2 0c0.3-0.3 0.5-0.6 0.7-0.6c0 0.2 0.1 0.3 0 0.5 c0 0.3-0.1 0.4-0.2 0.7l-0.6-0.1c0.2 0.1 0.3 0.2 0.5 0.4c0.2 0.2 0.5 0.5 0.2 1.4c-0.1 0.3-0.2 0.4-0.2 0.4s-0.1-0.3-0.6-0.8 c-0.4-0.5-1-0.8-1-0.8s0.2 0.2 0.4 0.5c0.2 0.3 0.5 0.9 0.5 0.9s-0.3-0.2-0.5-0.3c-0.2-0.1-0.6-0.3-0.6-0.3l0.1 0.3 c0 0-0.2 0-0.4 0c-0.2 0-0.6 0-0.6 0l-0.2 0.2l-0.3-0.1L39.4 25.9z M41.8 22.8l-0.2-0.2c0 0-0.2 0-0.4 0c-0.2 0-0.5 0.1-0.5 0.1 s0.4-0.4 0.8-0.5c0.1 0 0.4-0.1 0.4-0.1s0.5 0.1 0.5 0.4c0 0.1-0.2 0.2-0.2 0.2L41.8 22.8z M39.3 22.8l-0.1 0.2 c0 0-0.1-0.1-0.2-0.1c-0.1 0-0.1 0-0.2 0c0 0 0-0.1 0-0.1c0 0 0-0.1 0-0.1c0.1 0 0.2 0 0.3 0C39.2 22.7 39.3 22.8 39.3 22.8z M45.6 27.9c-0.5 0.8-1 2.1-1 2.1s1.5-0.5 2.5-0.6c0.7-0.1 1.8-0.1 1.8-0.1s1.6 0.5 2.6 1c1.6 0.7 3.8 2.2 3.8 2.2 s3.3 4.2 5.1 14.9c0.8 4.9 1.7 9.1 2.6 12.8c-0.9 1.1-1.9 2.1-3 3c-0.2-1.2-0.5-2.5-0.8-4c-1.3-6.8-1.7-10.6-3.2-17.4 c-0.4-2-1.2-5.2-1.2-5.2s0.4 3.1 0.6 5c1.2 8.8 2.3 14.8 4.1 21.9c-0.8 0.7-1.6 1.3-2.5 1.9c-0.7-3.2-1.4-6.4-1.8-9.2 c-1.5-8.8-2.1-20.2-2.9-22.6c-0.9-2.6-3.7-2.7-3.7-2.7s2.8 1 3.2 3.8c0.4 3.2 1 13.6 2.4 22.2c0.5 2.8 1.1 6 1.9 9.1 c-0.8 0.5-1.7 1-2.5 1.4c-0.6-3.2-1.1-6.4-1.3-9.3c-1-11.1-0.9-18.4-2.1-24.5c-0.4-2-2.5-2.3-2.5-2.3s1.9 0.7 2.1 2.4 c0.8 5.2 0.6 15.1 1.6 24.7c0.3 3.1 0.8 6.3 1.3 9.3c-1 0.4-2 0.8-3.1 1.2c-0.6-4.8-1-10.2-1.1-15.6c0-3.2 0.1-4.3 0.2-8.5 c0.2-7.5 0.1-11.6-0.8-11.6c-1.2-0.1-1.9-0.3-2.9-0.8c-0.7-0.4-1.1-0.6-1.7-1.1c-0.5-0.1-0.8-0.1-1.4-0.1c-0.4 0-0.9 0-1 0.1 c0-0.1-0.1-0.2-0.1-0.2c0.2 0 0.7-0.1 1-0.2c0.6-0.1 1.6-0.3 1.6-0.3s-1.7 0.1-2.3 0.2c-0.1 0-0.3 0-0.4 0 c-0.1-0.1-0.1-0.2-0.1-0.3c0.2-0.1 0.9-0.2 1.4-0.3c0.6-0.1 1-0.1 1.6-0.2c0.4-0.8 0.6-1.3 1.2-2c0.5-0.8 0.9-1.2 1.5-1.9 c0 0 1.1 0 1.7-0.1c0.6 0 1.5-0.2 1.5-0.2s0.4 0.3 1 0.9c0.5 0.6 1.1 1.3 1.1 1.3s-0.8-0.1-1.4 0.1c-0.5 0.1-1 0.3-1 0.3 s-0.6-0.6-1-0.9c-0.6-0.4-1.6-0.9-1.6-0.9S46 27.3 45.6 27.9z M41.4 17.2l-0.3 2.3c-0.4 0.1-0.6 0.1-1 0.2c-0.4 0.1-0.6 0.2-1 0.3 l0.1-0.8c0.1 0 0.1 0 0.2-0.1c0.1 0 0.1 0 0.2-0.1l-0.1 0.4c0.2 0 0.3-0.1 0.5-0.1c0.3-0.1 0.4-0.1 0.6-0.1l0.2-1.5 c-0.2 0-0.4 0.1-0.6 0.2c-0.2 0.1-0.4 0.1-0.6 0.3l-0.1 0.4l-0.1 0c-0.1 0-0.2 0.1-0.2 0.1l0.1-0.7c0 0 0.3-0.2 0.7-0.3 C40.6 17.4 41.4 17.2 41.4 17.2z M45.1 24.9c0-0.1 0-0.3 0.1-0.3c0.2-0.1 0.5 0.6 1.1-0.1c0.3-0.3 0.2-0.6 0.2-0.6 s-0.2 0.3-0.3 0.5c-0.1 0.1-0.3 0.1-0.3 0.1s0.3-0.2 0.4-0.6c0.1-0.2 0.1-0.6 0.1-0.6s0.1-0.1 0.2-0.1c0.4-0.3 0.4 0.3 0.4 0.7 c-0.1 0.6-0.5 1.5-1.3 1.4C45.3 25.2 45.2 25.1 45.1 24.9z M45.2 23.3c0 0 0.1-0.1 0.2-0.1c0 0 0.1 0 0.1-0.1c0 0 0.1 0 0.1 0 c0.1 0 0.2 0 0.3 0c0 0 0.2 0.3-0.1 0.7c-0.1 0.2-0.4 0.2-0.4 0.2s0.3-0.5 0.1-0.7C45.4 23.4 45.2 23.3 45.2 23.3z M44.9 21.5 c0.3 0.1 0.4 0.2 0.7 0.2c0.2 0 0.4 0 0.6 0c-0.2 0.3-0.5 0.3-0.8 0.2C45.1 22 44.9 21.8 44.9 21.5z M45 22.2 c0.2 0.1 0.3 0.2 0.6 0.2c0.3 0 0.5-0.1 0.8-0.2c0.5-0.1 0.7 0.2 0.7 0.2s-0.3 0-0.6 0.2C46.2 22.8 46 23 45.8 23 c-0.2 0-0.3 0-0.5-0.2C45.1 22.6 45 22.5 45 22.2z M44 21.7c0 0 0.5 0 0.7 0.3c0.1 0.2-0.1 0.6 0.1 0.8c0.1 0.1 0.4 0.2 0.4 0.2 s-0.5 0.4-0.9-0.1c-0.2-0.2 0-0.5-0.1-0.8C44.2 21.9 44 21.7 44 21.7z M42.6 42.8l1 0.4l0.4 0.2c-0.2 0.1-0.4 0.1-0.7 0.1l-0.1 0.6 c-0.3-0.2-0.8-0.4-0.8-0.4L42.6 42.8z M45.5 33.7l0.2 0.1l-0.6 2.6l0.7-2.6l0.2 0l0.1 0.1l-0.7 2.6l0.8-2.5l0.2 0l0.1 0.1l-0.7 2.5 l0.8-2.5l0.1 0l0.1 0.1l-0.7 2.7l0.8-2.6l0.1 0l0.1 0.1c-0.3 1.2-0.5 2-0.8 2.9l-1.4-0.6C45 35.5 45.2 34.8 45.5 33.7z M43.3 44.5 c0.1 0.1 0.3 0.2 0.4 0.2c0.2 0.1 0.6 0.1 0.6 0.1L43.5 45c-0.4-0.2-0.7-0.4-0.7-0.4l0.1-0.4C43 44.4 43.1 44.4 43.3 44.5z M45.8 38.6l0 0.2c-0.4 1.5-0.7 2.7-1 3.9c0 0-0.1 0.3-0.4 0.5c-0.3-0.1-0.5-0.1-0.8-0.3c-0.1 0-0.2-0.1-0.3-0.1 c0.4-1.6 0.7-2.9 1.2-4.7c0.1 0 0.2 0.1 0.3 0.1C45.1 38.4 45.3 38.5 45.8 38.6z M44.4 39.8c0.1-0.5 0.3-1.3 0.3-1.3 S44.5 39.2 44.4 39.8c-0.4 1-0.8 2.7-0.8 2.7S44.2 40.9 44.4 39.8z M45 40.5c0.1-0.4 0.3-1.1 0.3-1.1S45 40.1 45 40.5 c-0.3 0.8-0.6 2.2-0.6 2.2S44.8 41.4 45 40.5z M45 39.3c0.1-0.4 0.2-0.8 0.2-0.8S45 38.9 45 39.3c-0.3 0.7-0.5 1.9-0.5 1.9 S44.8 40 45 39.3z M44.1 36.5l1.1 0.5l0.9 0.4L46 37.7l0.4 0.2l-0.1 0.3l-0.4-0.1l-0.1 0.2c0 0-0.7-0.3-1.1-0.4 c-0.3-0.2-0.8-0.4-0.8-0.4L44.1 36.5z M45.1 33.2l0.3-0.1l0.4 0.1l-0.3 0.1c0 0-0.4 1.5-0.8 3l-0.3-0.1 C44.5 35.4 44.8 34.4 45.1 33.2z M44.2 38c-0.1 0.3-0.1 0.6-0.2 0.8c-0.4 1.5-0.5 2.3-0.9 3.7l0 0.2c-0.1 0-0.2-0.1-0.3-0.1l0-0.1 c0.4-1.5 0.5-2.3 0.9-3.8l0.2-0.9C44 37.9 44.1 37.9 44.2 38z M42.7 44.2l-0.1 0.4c0 0-0.2-0.1-0.3-0.1l0.1-0.4 C42.4 44.1 42.5 44.1 42.7 44.2L42.7 44.2z M47.8 33.8L47.7 34c0 0-0.6 2.1-1 3.6l0 0.2l-0.4-0.2l0.1-0.3c0.3-1.2 0.6-2 1-3.3 l0.2-0.2L47.8 33.8z M46.4 38.5c-0.4 1.7-0.9 3.5-1.1 4.3L45 42.7c0.1-0.7 0.6-2.7 1-4.3l0.2 0L46.4 38.5z M39.5 30.4 c0.2 0.3 0.3 0.5 0.4 0.9c0 0.2 0.1 0.5 0.1 0.5l-0.4 0c0 0-0.1-0.4-0.1-0.7C39.5 30.9 39.5 30.4 39.5 30.4z M39.6 30.3l0.3-0.1 c0 0 0.3 0.3 0.4 0.5c0.2 0.3 0.3 0.8 0.3 0.8l-0.3 0.2c-0.1-0.4-0.2-0.6-0.3-0.9C39.9 30.7 39.8 30.5 39.6 30.3z M44.6 27.8 c0 0-0.4 0.5-0.6 0.8c-0.3 0.4-0.6 1.1-0.6 1.1s-0.6 0.1-1 0.1c-0.5 0.1-1.4 0.2-1.4 0.2s1.1-0.8 1.8-1.3 C43.5 28.4 44.6 27.8 44.6 27.8z M41.1 31.6c0 0 0.7-0.1 1.2-0.1c0.3 0 0.5 0 0.8 0c0.2 0.2 0.4 0.3 0.6 0.6c0.2 0.2 1 0.7 1 0.7 s-0.1 0.1-0.1 0.2c-0.1 0.2-0.1 0.4-0.1 0.4s-2.3 0-3.4 0.1c-1 0.1-1.6 0.2-2.6 0.5c0.2-0.4 0.3-0.6 0.5-0.9 c0.2-0.3 0.5-0.7 0.5-0.7l0.9-0.2L41.1 31.6z M39.5 27.5l0.2-0.6c0 0 0-0.2 0.2-0.3c0.4-0.3 1-0.3 1-0.3s-0.2-0.1-0.3-0.1 c-0.2-0.1-0.4 0-0.5 0.1c0 0-0.2 0-0.3 0c-0.2 0-0.3 0.1-0.3 0.1l0.1-0.3c0.1 0 0.1 0 0.2 0c0.1 0 0.1 0 0.2 0 c0.1-0.1 0.2-0.1 0.3-0.2c0.1 0 0.2-0.1 0.3-0.1c0.1 0 0.2 0 0.4 0c0.1 0 0.2 0 0.3 0c0.2 0 0.5 0.1 0.7 0.3 c0.3 0.3 0.5 0.7 0.5 0.7s-0.1 0.2-0.4 0.4c-0.2 0.2-1 0.6-1 0.6s-0.4-0.3-0.9-0.3C39.8 27.4 39.5 27.5 39.5 27.5z M39 22.2l-0.2 0 c0-0.1 0.1-0.2 0.1-0.3c0-0.1 0.1-0.2 0.1-0.3c0.6-0.3 1-0.4 1.7-0.5c0.5-0.1 0.8-0.1 1.3-0.1c0.2 0.2 0.3 0.3 0.4 0.5 c0.2 0.2 0.4 0.5 0.4 0.5s-0.9-0.1-1.5 0c-0.4 0.1-0.9 0.2-0.9 0.2s-0.4 0.3-0.5 0.3c-0.1 0-0.4-0.1-0.4-0.1s-0.2-0.1-0.3-0.2 C39.1 22.2 39.1 22.2 39 22.2z M40.2 18.6l0 0.3c0 0-0.3 0-0.6 0.1c-0.2 0.1-0.5 0.2-0.5 0.2l0.1-0.3c0 0 0.3-0.1 0.6-0.2 C39.9 18.6 40.2 18.6 40.2 18.6z M37.5 32.7c-0.1-0.2-0.2-0.5-0.3-0.7c-0.3-0.5-0.4-0.8-0.8-1.2c0.9-0.5 1.4-0.8 2.3-1.3 c0.8-0.4 2.1-0.8 2.1-0.8s0.2 0.3 0.3 0.5c0.1 0.2 0.1 0.4 0.1 0.4l-0.7 0.5l-0.2-0.2l-0.9 0.2c0 0-0.1 0.5-0.2 0.8 c0 0.3 0 0.7 0 0.7s-0.4 0.2-0.8 0.4C38 32.3 37.7 32.5 37.5 32.7z M31.9 41.9c-1.7 2.2-2.1 2.9-2.1 2.9s0-0.9 0.7-2.6 c0.5-1 0.7-1.6 1.3-2.6c-1.3 1-1.9 2.6-2.5 4.2C29.1 44 29 43.3 29 43.3s-0.1-1.8 0.5-4.5c0.3-1.1 1-2.6 1-2.6s2.6 0.7 4.9-0.8 c1-0.7 2.1-2.2 2.1-2.2c0.4-0.4 0.6-0.5 1.1-0.8l0.1 0c-1 1.3-1.6 2.2-2.5 3.7c-0.5 0.8-0.9 1.5-1.2 2.2 C34.3 39.1 32.8 40.7 31.9 41.9z M44.6 27.4c0 0-0.8 0.4-1.5 0.7c-0.6 0.3-1.5 1-1.5 1l-0.2-0.7c0 0 0.8-0.3 1.5-0.7 c0.7-0.4 2.1-1.5 2.1-1.5L44.6 27.4z M47.8 46.2c-0.1 0.9-0.4 1.6-0.5 1.6c-1.3 0.1-3.2 0.8-3.2 0.8s-0.7-0.1-1.3-0.4 c-0.3-0.1-0.5-0.2-0.9-0.4l-0.1-0.4l0.5 0l-0.7-0.4c-0.1-0.1-0.2-0.2-0.3-0.3c-0.1-0.2-0.2-0.5-0.2-0.5l0.2-0.6 c0 0 0.5 0.4 0.7 0.5c0.3 0.1 0.8 0.2 0.8 0.2s-0.6-0.4-0.9-0.6c-0.2-0.2-0.4-0.5-0.4-0.5L41.5 45l0.2-0.5l0.3-0.1l0 0.2 c0 0 0.6 0.3 1 0.5c0.2 0.1 0.3 0.1 0.5 0.2c0.3 0 0.4-0.1 0.7-0.1c0.5-0.1 1.2-0.4 1.2-0.4L45 44.4c0 0-0.4 0.1-0.7 0.1 c-0.3 0-0.5-0.1-0.8-0.3l0.1-0.5c0.3 0 0.4-0.1 0.7-0.2c0.3-0.1 0.7-0.5 0.7-0.5s0.5 0.2 0.9 0.3c0.3 0.1 0.9 0.1 0.9 0.1 s0.6 0.7 0.8 0.8c0.1 0.1 0.2 0.2 0.4 0.3C47.8 44.7 47.9 45.7 47.8 46.2z M37.6 34.9c0 0-0.6 1-1.3 3.9 c-1.3 5.4-1.7 10.5-1.7 10.5s-2.1 8.9-3.3 12.8c0.9-11.6 1.8-15.3 2.4-17.3C35.9 36.6 37.6 34.9 37.6 34.9z M41.5 19.4l0.3-1.9 c0 0 0.5-0.2 1.3-0.2c2.2 0 3.6 0.7 3.6 0.7s0 0.2 0 0.4c0 0.2 0 0.7 0 0.7S45.7 19 45 19C42.9 19 41.5 19.4 41.5 19.4z M41.8 16.8 L41.3 17c0 0 0.1-0.4 0.1-0.7c0.1-0.7 0.3-1.9 0.3-1.9s1-0.7 2.8-0.5c1.6 0.2 2.3 0.9 2.3 0.9s-0.1 1.1-0.2 1.9 c0 0.4-0.1 1.1-0.1 1.1S45 16.9 42.9 17c-0.5 0-1.1 0.2-1.1 0.2L41.8 16.8z M26.3 55.3L25 54.4C24.4 54 23.8 53 23.8 53l1.4-2 l0.5 0l0.4-0.8l0.4-0.1l0.3-0.9l0.6-0.2c1.9-2.7 2.9-3.6 4.9-6.3c0.7-0.9 1.8-2.2 2.3-2.8c-0.7 1.6-1.9 6.9-1.9 6.9 s-1.5 0.8-2.4 1.3c-1.1 0.6-3 1.5-3 1.5l-0.1 0.8c0 0 1.1-0.2 1.8-0.4c1.4-0.4 3.5-1.3 3.5-1.3s-1.7 1.5-2.7 2 c-1.4 0.6-3.9 1.1-3.9 1.1s1.3 0.6 2.1 0.6c1 0.1 2.5-0.4 2.5-0.4s-0.6 0.9-1.2 1.2c-0.3 0.2-0.9 0.2-0.9 0.2L26.3 55.3z M33 59.2 c0 0 0.4 2.9 3 7.8c0.7 1.4 1.2 2.4 1.6 3.3c-2.2-0.2-4.4-0.7-6.4-1.3c0.1-1 0.2-2 0.3-2.8C31.6 64.5 33 59.2 33 59.2z M34.1 56.1 l0.5-1.9c0 0 0.3 5.5 1.3 9l0.8-0.3c0 0 0.7 2.2 1.2 3.2c0.8 1.6 1.3 2.6 1.3 2.6s-2.8-2-4.2-5.5c-0.7-1.8-1.4-4.7-1.4-4.7 L34.1 56.1z M41.2 59.8c0.2-0.2 0.3-0.3 0.5-0.5c2.2-2.3 3.7-3.6 5.2-6.2l0.9 2.9c0 1.3 0.1 2.1 0.1 3.4c0.1 1.8 0.2 3.8 0.2 3.8 s-0.4-0.9-0.8-1.4c-0.4-0.7-1.3-1.8-1.3-1.8s0.8 2.1 1.4 3.4c0.3 0.6 0.8 1.6 0.8 1.6l0.1 1.4c0.1 1 0.2 2.7 0.2 2.7 s-0.9-1.3-1.1-1.6c-0.6-0.8-0.9-1.1-0.9-1.1s0.5 1.5 0.9 2.2c0.1 0.3 0.3 0.5 0.4 0.8c-1.5 0.4-3 0.7-4.5 0.8 c-0.3-1.7-0.5-3.4-1-5.5C42 62.8 41.8 61.7 41.2 59.8z M39.2 65.8c-0.7-1.4-1-2.2-1.4-3.7c1.1-0.6 1.9-1.2 2.8-1.9l2.1 10.1 c-0.2 0-0.3 0-0.5 0C41.4 69.3 40 67.4 39.2 65.8z M25.1 61.2c-0.2-0.5-0.3-0.8-0.5-1.3c0.1 0.6 0.2 0.9 0.4 1.5 c0.2 0.7 0.4 1.1 0.6 1.7C25.5 62.3 25.4 61.9 25.1 61.2z M26.5 64.2c-0.2-0.5-0.5-1.3-0.5-1.3s0.3 1.3 0.5 2.1 c0.2 0.8 0.6 2 0.8 2.5c-0.4-0.2-0.7-0.4-1.1-0.6c-0.2-0.4-0.3-0.8-0.4-1.1c-0.1-0.3-0.6-0.4-0.6-0.4l-0.2-1c0 0 0.2-0.4 0.2-0.6 c0-0.3-0.1-0.9-0.3-1.5c-0.3-1.1-0.9-2.8-0.9-2.8l0.2-0.9c0.1-0.1 0.2-0.1 0.2-0.1c0.1 0.2 0.1 0.4 0.2 0.7 c0.2 0.4 0.3 0.7 0.5 1.1c-0.1-0.5-0.2-0.8-0.3-1.4c-0.1-0.3-0.1-0.4-0.1-0.7l0 0c0.1-0.1 0.2-0.2 0.2-0.3c0.1 0.5 0.2 0.8 0.3 1.3 c0.3 1 0.4 1.6 0.7 2.6c-0.2-0.8-0.3-1.3-0.5-2.2c-0.2-0.8-0.2-1.3-0.4-2.1c0.1-0.2 0.2-0.4 0.2-0.4s0.5 2.4 0.8 3.9 c0.4 1.7 0.6 2.7 1.1 4.4c0.2 0.8 0.4 1.5 0.5 2.2c-0.1-0.1-0.3-0.1-0.4-0.2C27.3 66.9 26.9 65.3 26.5 64.2z M23.8 54 c0 0 0.5 0.6 0.9 0.9c0.4 0.4 1.2 0.8 1.2 0.8s-0.1 0.4-0.2 0.6c-0.2 0.2-0.6 0.5-0.6 0.5s-0.2 0.6-0.5 0.9 c-0.3 0.3-0.5 0.5-0.9 0.6l-0.2 0.7l-0.6 0.6l-0.4-0.3l0-0.9c0 0 0.1-0.3 0.1-0.5c0-0.2 0-0.5 0-0.5s-0.2 0.1-0.3 0.2 c-0.2 0.1-0.6 0-0.6 0s0.2 0.2 0.2 0.4c0.1 0.2 0 0.5 0 0.5s0.1 0.1 0.2 0.1c0.1 0 0.1 0.1 0.1 0.1l-0.1 0.8l0.6 0.4l0.3 0.1 l-0.5 0.2c-0.3-0.2-0.4-0.3-0.7-0.5c-0.3-0.2-0.5-0.3-0.8-0.5c0-0.4 0-0.6 0-1c0-0.5-0.1-0.8-0.1-1.4c0.7-0.6 1-0.9 1.6-1.5 C23.1 54.8 23.8 54 23.8 54z" class="style0"/></g><path d="M40.4 1.5C18.9 1.5 1.5 18.9 1.5 40.4s17.4 38.9 38.9 38.9s38.9-17.4 38.9-38.9 S61.9 1.5 40.4 1.5z M40.4 0.4c22.1 0 40 17.9 40 40s-17.9 40-40 40s-40-17.9-40-40S18.3 0.4 40.4 0.4z M40.4 11.4 c-16 0-29 13-29 29s13 29 29 29s29-13 29-29S56.4 11.4 40.4 11.4z M40.4 10.3c16.6 0 30 13.5 30 30s-13.5 30-30 30s-30-13.5-30-30 S23.8 10.3 40.4 10.3z" class="style2"/><path d="M71.7 56c0.1 0.1 0.3 0.2 0.2 0.4c-0.1 0.1-0.2 0.1-0.2 0.1c-0.1 0-0.2 0-0.2-0.1 L71 57.3l0.7 0.3c0.4-0.2 0.7-0.5 0.8-0.9c0.5-1.1 0-1.5-0.5-1.7l-1.2-0.6c-0.7-0.4-1.2-0.2-1.6 0.7c-0.4 0.9-0.2 1.3 0.4 1.6 l0.3 0.1c0.3 0.1 0.5 0.2 0.8 0.1c0.4-0.2 0.6-0.6 0.6-1L71.7 56z M70.2 55.7c-0.1-0.1-0.3-0.2-0.2-0.4c0.1-0.2 0.3-0.1 0.4 0 l0.2 0.1c0.1 0.1 0.3 0.2 0.2 0.4c-0.1 0.2-0.3 0.1-0.4 0L70.2 55.7z M68.6 58.5c-0.2-0.1-0.2-0.2-0.1-0.5l1.8 2.3l0.6-1l-1.9-2.4 l-0.5-0.3l-1.3 2.1l1.2 0.8l0.5-0.8L68.6 58.5z M65.8 61c0 0.3 0.3 0.6 0.5 0.8l1 0.7c0.6 0.4 1.1 0.7 1.8-0.3 c0.5-0.7 0.4-1.1 0.2-1.3c-0.1-0.1-0.4-0.4-0.5-0.5c-0.2-0.2-0.5-0.3-0.8-0.3c-0.4 0.1-0.8 0.5-0.9 0.9l-0.2-0.2 c-0.2-0.1-0.3-0.2-0.2-0.4c0.1-0.2 0.3 0 0.4 0l0 0l0.6-0.8l-0.6-0.5C66.4 59.5 65.8 60.4 65.8 61z M67.9 61.6 c-0.1-0.1-0.3-0.2-0.1-0.4c0.1-0.2 0.3-0.1 0.4 0l0.2 0.1c0.1 0.1 0.2 0.2 0.1 0.4c-0.1 0.2-0.3 0.1-0.4 0L67.9 61.6z M65 61.6 l-0.8 0.9l0.5 0.4c0.1 0 0.2 0.1 0.3 0.1l1.2 1.1c0.1 0.1 0.2 0.2 0.2 0.3l0.5 0.4l0.9-1l-0.5-0.4c-0.1 0-0.2-0.1-0.3-0.1L65 61.6z M64.4 67.2l0.8-0.7l-0.4-0.4c-0.2 0-0.2-0.1-0.3-0.1l-1.8-2l-0.8 0.7l0.4 0.4c0.2 0 0.2 0.1 0.3 0.2l0.1 0.1 c-0.2 0-0.4 0.1-0.5 0.2c-0.4 0.3-0.4 0.7 0 1.1l0.6 0.7c0.4 0.4 0.7 0.6 1.1 0.2c0.2-0.2 0.3-0.3 0.3-0.6L64.4 67.2z M63.9 66.7 c0 0.1-0.1 0.1-0.1 0.1c-0.1 0.1-0.3 0-0.4-0.1L63 66.3c-0.1-0.1-0.2-0.2-0.1-0.4c0 0 0.1-0.1 0.2-0.1L63.9 66.7z M61 67.9l-0.3 0.2 L60.6 68c-0.1-0.1-0.1-0.2 0-0.3C60.8 67.6 60.9 67.7 61 67.9L61 67.9z M60.3 69.2c0.2 0.3 0.4 0.5 0.7 0.5c0.3 0 0.6-0.2 0.9-0.4 c0.3-0.3 0.6-0.6 0.6-0.9l-0.4-0.5l-0.8 0.6l0.1 0.1c0.1 0.1 0.2 0.2 0 0.3c-0.1 0.1-0.2 0-0.3-0.1L61 68.6l1.1-0.8l-0.4-0.5 c-0.4-0.5-0.7-0.6-1.5-0.1c-0.7 0.5-0.8 0.9-0.3 1.5L60.3 69.2z M58.4 67.7l-0.7 0.8l0.3 0.4l-0.1 0.1l0.3 0.5l0.1-0.1l0.7 1 c0.1 0.2 0.2 0.4 0.5 0.4c0.2 0 0.5-0.1 0.6-0.2l0.4-0.3l-0.3-0.5c-0.3 0.1-0.3 0.1-0.5-0.2l-0.5-0.8l0.3-0.2l-0.3-0.5l-0.3 0.2 L58.4 67.7z M57.2 70.4L58 70l-0.3-0.6c-0.4-0.1-0.8 0.1-1.2 0.3c-0.8 0.4-0.8 0.8-0.5 1.3l0.4 0.7c0.2 0.3 0.5 0.8 1.4 0.3 c0.3-0.2 0.7-0.5 0.8-0.9l-0.4-0.7l-0.8 0.4l0.1 0.1c0.1 0.1 0.2 0.3 0 0.4c-0.2 0.1-0.3-0.1-0.3-0.2l-0.4-0.7 c-0.1-0.1-0.2-0.3 0-0.4C57 70 57.1 70.2 57.2 70.4L57.2 70.4z M54.6 71.7l-0.3 0.2l0-0.1c0-0.1-0.1-0.2 0.1-0.3 C54.5 71.3 54.5 71.5 54.6 71.7L54.6 71.7z M53.7 72.9c0.1 0.3 0.3 0.5 0.6 0.6c0.3 0.1 0.6 0 1-0.2c0.4-0.2 0.7-0.5 0.8-0.7 L55.8 72l-0.9 0.4l0 0.1c0.1 0.1 0.1 0.3 0 0.3c-0.2 0.1-0.2-0.1-0.3-0.2l-0.1-0.2l1.2-0.5l-0.2-0.6c-0.2-0.6-0.6-0.8-1.4-0.4 c-0.8 0.4-0.9 0.7-0.6 1.4L53.7 72.9z M52.1 71.7l-1 0.4l0.2 0.5c0.2 0 0.2 0.1 0.2 0.3l0.3 0.7c0 0.1 0.1 0.2 0 0.4l0.2 0.5 l1.1-0.4L53 73.5c-0.1 0-0.1 0-0.2-0.1c0-0.1-0.1-0.2-0.1-0.3l-0.1-0.2c-0.1-0.3-0.1-0.5 0.2-0.6l0.1 0l-0.3-0.8c0 0-0.1 0-0.1 0 c-0.2 0.1-0.3 0.2-0.3 0.4L52.1 71.7z M50.1 73.8l0 0.1c0.1 0.3 0.1 0.4-0.2 0.5l-0.1 0l-0.2-0.7l0.7-0.2l-0.2-0.7l-0.7 0.2 l-0.2-0.6l0.1 0c0.3-0.1 0.3 0 0.4 0.2l0 0.1l1-0.3l-0.3-1.1l-2.5 0.7l0.2 0.6c0.1 0 0.2 0.2 0.2 0.3l0.4 1.5c0 0.1 0.1 0.2 0 0.4 l0.2 0.6l2.5-0.7L51 73.5L50.1 73.8z M45.4 74.4L45 74.4l0-0.1c0-0.1 0-0.3 0.1-0.3C45.3 74 45.3 74.2 45.4 74.4L45.4 74.4z M44.1 75.3c0 0.3 0.1 0.6 0.4 0.7c0.2 0.1 0.6 0.1 1 0.1c0.4-0.1 0.8-0.3 0.9-0.5L46.4 75l-1 0.1l0 0.1c0 0.1 0 0.3-0.1 0.3 c-0.2 0-0.2-0.1-0.2-0.3l0-0.2l1.3-0.2l-0.1-0.6c-0.1-0.6-0.3-0.9-1.3-0.8c-0.9 0.1-1.1 0.4-1 1.1L44.1 75.3z M42.3 75.4l-0.9 0.1 l0 0.7c0.3 0.2 0.8 0.3 1.1 0.3c0.6 0 1.1-0.2 1-0.9c0-0.6-0.5-0.7-1-0.7c-0.1 0-0.4 0-0.4-0.2c0-0.1 0.1-0.2 0.2-0.2 c0.2 0 0.2 0.1 0.2 0.2l0 0.1l0.9-0.1l0-0.6c-0.3-0.2-0.8-0.3-1.2-0.3c-0.2 0-0.5 0.1-0.7 0.2c-0.2 0.2-0.3 0.4-0.3 0.7 C41.3 75.2 41.7 75.2 42.3 75.4c0.1-0.1 0.4 0 0.4 0.2c0 0.1-0.1 0.2-0.2 0.2C42.3 75.8 42.3 75.6 42.3 75.4L42.3 75.4z M38.2 75.4 c0 0.2 0 0.5 0.1 0.7c0.1 0.2 0.4 0.3 0.6 0.3c0.2 0 0.5-0.1 0.7-0.2l0 0.2l1 0l0-0.6c-0.1-0.1-0.1-0.2-0.1-0.3l0.1-1.7l-1.1 0 l0 0.6c0.1 0.1 0.1 0.2 0.1 0.3l0 1c0 0-0.1 0-0.2 0c-0.2 0-0.2-0.3-0.2-0.4l0-1c0-0.2 0-0.3 0-0.5l-1 0l0 0.6 c0.1 0.1 0.1 0.2 0.1 0.3L38.2 75.4z M36.3 74.6c0-0.1 0-0.4 0.2-0.4c0.2 0 0.1 0.3 0.1 0.4l-0.1 0.7c0 0.1 0 0.3-0.2 0.3 c-0.2 0-0.2-0.2-0.1-0.4L36.3 74.6z M37.6 74.7c0-0.3 0.1-0.6-0.2-0.9c-0.2-0.2-0.6-0.2-0.9-0.3c-0.3 0-0.6 0-0.9 0.1 c-0.3 0.2-0.3 0.5-0.3 0.7l-0.1 0.7c0 0.3-0.1 0.6 0.2 0.9c0.2 0.2 0.6 0.2 0.8 0.3c0.3 0 0.6 0.1 0.9-0.1c0.3-0.2 0.3-0.5 0.3-0.8 L37.6 74.7z M34.5 75.3c-0.1-0.1-0.1-0.2 0-0.4l0.3-1.5c0-0.1 0-0.3 0.2-0.3l0.1-0.6l-1.3-0.3l-0.1 0.6c0.1 0.1 0.1 0.2 0 0.4 l-0.1 0.4l-0.4-0.1l0.1-0.4c0-0.1 0-0.3 0.2-0.3l0.1-0.6l-1.3-0.3l-0.1 0.6c0.1 0.1 0.1 0.2 0 0.4l-0.3 1.5c0 0.1 0 0.3-0.2 0.3 l-0.1 0.6l1.3 0.3L33 75c-0.1-0.1-0.1-0.2 0-0.4l0.1-0.5l0.4 0.1l-0.1 0.5c0 0.1 0 0.3-0.2 0.3l-0.1 0.6l1.3 0.3L34.5 75.3z M30.4 71.4l-1-0.4l-0.2 0.5c0.1 0.1 0 0.2 0 0.4l-0.5 1.6c0 0.1-0.1 0.2-0.2 0.3l-0.2 0.5l1.1 0.4l0.2-0.5c-0.1-0.1 0-0.2 0-0.4 L30.4 71.4z M27.1 72.1c0.1-0.1 0.1-0.4 0.3-0.3c0.2 0.1 0.1 0.3 0 0.4L27.2 73c-0.1 0.1-0.1 0.3-0.3 0.3c-0.2-0.1-0.1-0.3 0-0.4 L27.1 72.1z M28.3 72.6c0.1-0.3 0.2-0.6 0-0.9c-0.2-0.2-0.5-0.4-0.8-0.5c-0.3-0.1-0.6-0.2-0.9-0.1c-0.3 0.1-0.4 0.4-0.5 0.6L26 72.4 c-0.1 0.3-0.2 0.6 0 0.9c0.2 0.2 0.5 0.4 0.7 0.5c0.3 0.1 0.6 0.2 0.9 0.1c0.3-0.1 0.4-0.4 0.5-0.7L28.3 72.6z M24.4 70.9 c0.1-0.1 0.2-0.4 0.3-0.3c0.2 0.1 0 0.3 0 0.4l-0.3 0.7c-0.1 0.1-0.2 0.3-0.3 0.2c-0.2-0.1-0.1-0.3 0-0.4L24.4 70.9z M25.6 71.5 c0.2-0.3 0.3-0.6 0.1-0.9c-0.1-0.2-0.5-0.4-0.7-0.5c-0.3-0.1-0.5-0.3-0.8-0.2c-0.3 0.1-0.4 0.3-0.6 0.6L23.3 71 c-0.2 0.3-0.3 0.6-0.1 0.9c0.1 0.2 0.4 0.4 0.7 0.6c0.3 0.1 0.6 0.3 0.9 0.2c0.3-0.1 0.5-0.3 0.6-0.6L25.6 71.5z M22.9 67.8L22 67.3 l-0.3 0.5c0.1 0.1 0 0.2-0.1 0.4l-0.9 1.4c-0.1 0.1-0.1 0.2-0.3 0.2l-0.3 0.5l1 0.6l0.3-0.5c-0.1-0.1 0-0.2 0.1-0.4l0.5-0.8 c0.2 0 0.2 0.1 0.2 0.3c0 0.1-0.1 0.2-0.1 0.2l-0.4 0.6c-0.1 0.2-0.3 0.5-0.4 0.7l0.9 0.5l0.3-0.5c-0.1-0.1 0-0.2 0.1-0.3l0.5-0.8 c0.1-0.2 0.2-0.4 0.1-0.6c0-0.1-0.1-0.3-0.3-0.4c-0.2-0.1-0.4-0.2-0.6-0.2L22.9 67.8z M19.8 67.9l0.7 0.5l0.4-0.6 c-0.1-0.4-0.4-0.7-0.7-0.9c-0.7-0.5-1.1-0.4-1.4 0.1l-0.5 0.7c-0.2 0.2-0.6 0.8 0.3 1.4c0.3 0.2 0.7 0.5 1.1 0.4l0.5-0.6l-0.7-0.5 l-0.1 0.1c-0.1 0.1-0.2 0.3-0.4 0.2c-0.1-0.1 0-0.3 0.1-0.4l0.5-0.7c0.1-0.1 0.2-0.3 0.3-0.1C20 67.6 19.9 67.8 19.8 67.9L19.8 67.9 z M17.8 65.4l0.7 0.7l0.6-0.6c-0.1-0.5-0.3-0.8-0.7-1.1c-0.2-0.2-0.5-0.4-0.8-0.5c-0.4 0-0.5 0.1-0.8 0.3l-0.1 0.1 c-0.5 0.6-0.4 0.9 0 1.5c0.2 0.3 0.3 0.4 0.1 0.7c-0.1 0.1-0.2 0.2-0.3 0.1c-0.1-0.1-0.1-0.1-0.1-0.2c0-0.1 0.1-0.2 0.3-0.3L16 65.2 l-0.6 0.7c0.1 0.4 0.4 0.8 0.7 1.1c0.8 0.7 1.3 0.5 1.8 0.1l0 0c0.1-0.1 0.2-0.3 0.3-0.4c0.1-0.1 0.1-0.3 0-0.4 c-0.1-0.3-0.3-0.6-0.4-0.8c0-0.1-0.1-0.2-0.1-0.3c0-0.1 0-0.1 0.1-0.2c0.1-0.1 0.2-0.1 0.3 0C18.1 65.1 18 65.2 17.8 65.4L17.8 65.4 z M15.9 62L15 61.4l-0.4 0.3l-0.1-0.1l-0.5 0.4l0.1 0.1l-0.9 0.8c-0.2 0.1-0.4 0.3-0.4 0.5c0 0.2 0.1 0.5 0.3 0.6l0.3 0.3l0.4-0.4 c-0.2-0.3-0.1-0.3 0.1-0.5l0.8-0.6l0.2 0.2l0.5-0.4l-0.2-0.2L15.9 62z M12.3 61.4l-0.5-0.7L11.2 61c0 0.4 0.2 0.8 0.4 1.1 c0.3 0.5 0.8 0.8 1.3 0.4c0.5-0.4 0.3-0.8 0.1-1.3c-0.1-0.1-0.2-0.3 0-0.5c0.1-0.1 0.2 0 0.3 0c0.1 0.1 0 0.2-0.1 0.3l-0.1 0.1 l0.5 0.7l0.5-0.4c0-0.4-0.2-0.8-0.4-1.1c-0.1-0.2-0.4-0.4-0.6-0.5c-0.3-0.1-0.5 0-0.7 0.2c-0.4 0.3-0.3 0.7-0.1 1.1 c0.1 0.2 0.2 0.4 0 0.6c-0.1 0.1-0.2 0.1-0.3 0C11.9 61.6 12.1 61.5 12.3 61.4L12.3 61.4z M12.5 58.8L11.9 58l-0.5 0.3 c0 0.2-0.1 0.2-0.2 0.3L10.6 59c-0.1 0.1-0.2 0.1-0.3 0.1l-0.5 0.3l0.7 1l0.5-0.3c0-0.1 0-0.1 0.1-0.2c0.1-0.1 0.2-0.1 0.2-0.2 l0.2-0.1c0.3-0.2 0.5-0.2 0.6 0.1l0 0.1l0.7-0.5c0 0 0-0.1-0.1-0.1c-0.1-0.2-0.2-0.2-0.4-0.2L12.5 58.8z M11.6 57.1 c0.1 0.2 0.4 0.4 0.6 0.2c0.2-0.1 0.2-0.4 0.1-0.7c-0.1-0.2-0.4-0.4-0.6-0.2C11.4 56.6 11.4 56.9 11.6 57.1z M11.7 57.6l-0.6-0.9 L10.6 57c0 0.2-0.1 0.2-0.2 0.3l-0.7 0.4c-0.1 0.1-0.2 0.1-0.3 0.1L8.9 58l0.6 1l0.5-0.3c0-0.2 0.1-0.2 0.2-0.3L11.7 57.6z M10.7 56.5l1.1-0.5l-1.1-2.3l-0.6 0.3c0 0.1-0.1 0.2-0.2 0.3l-1.4 0.7c-0.1 0.1-0.2 0.1-0.4 0l-0.6 0.3l0.6 1.2l0.6-0.3 c0-0.2 0.1-0.2 0.3-0.3l0.4-0.2l0.3 0.6l0.6-0.3l-0.3-0.6l0.6-0.3c0.1 0.2 0.1 0.3 0.1 0.3c0 0.1-0.2 0.1-0.3 0.2L10.7 56.5z M74.9 49.1l-0.4 1.6l1.3 0.3c0.6-0.5 0.9-1.2 1.1-1.9c0.1-0.5 0.2-1.1 0-1.5c-0.2-0.5-0.5-0.7-1.1-0.9l-0.1 0 c-1.2-0.3-1.6 0.2-2.1 1.2c-0.2 0.5-0.4 0.8-0.9 0.7c-0.2-0.1-0.4-0.2-0.3-0.4c0-0.1 0.1-0.2 0.3-0.3c0.1 0 0.4 0 0.7 0.1l0.4-1.7 l-1.5-0.4c-0.6 0.5-0.9 1.2-1.1 1.9c-0.4 1.7 0.3 2.3 1.3 2.6l0 0c0.3 0.1 0.5 0.1 0.8 0.1c0.3 0 0.5-0.1 0.6-0.3 c0.3-0.3 0.6-0.8 0.8-1.2c0.1-0.1 0.2-0.4 0.3-0.4c0.1-0.1 0.2-0.1 0.3 0c0.2 0.1 0.3 0.2 0.3 0.4c-0.1 0.3-0.4 0.3-0.7 0.2 L74.9 49.1z M71.7 45.1l2.8 0.2l0.1-1.6l-0.9-0.1c-0.4 0-0.6 0-0.6-0.5l0-0.2l2.9 0.3c0.2 0 0.4 0 0.5 0.2l1 0.1l0.2-2.2l-1-0.1 c-0.2 0.2-0.4 0.2-0.6 0.1l-2.6-0.2c-0.2 0-0.4 0-0.5-0.2l-1-0.1L71.7 45.1z M76.1 37.5c0 0 0.4-0.1 0.5 0.3c0 0.4-0.4 0.4-0.4 0.4 l-2.6 0.2c0 0-0.4 0.1-0.5-0.3c0-0.4 0.4-0.4 0.4-0.4L76.1 37.5z M76.2 40c1.4-0.1 1.7-1 1.6-2.3c-0.1-1.3-0.5-2.1-1.9-2l-2.4 0.2 c-1.4 0.1-1.7 1-1.6 2.3c0.1 1.3 0.5 2.1 1.9 2L76.2 40z M75.2 31.7c0 0 0.4-0.1 0.5 0.2c0.1 0.4-0.3 0.4-0.3 0.4L72.8 33 c0 0-0.4 0.1-0.5-0.2c-0.1-0.4 0.3-0.4 0.4-0.4L75.2 31.7z M75.7 34.2c1.4-0.3 1.5-1.3 1.2-2.5c-0.3-1.2-0.9-2-2.2-1.6l-2.4 0.6 c-1.4 0.3-1.5 1.3-1.2 2.5c0.3 1.2 0.9 2 2.2 1.6L75.7 34.2z M71.4 29.8c0-0.3 0.2-0.3 0.4-0.4l2.4-1.1c0.2-0.1 0.4-0.2 0.6-0.1 l0.9-0.4l-0.9-2l-0.9 0.4c0 0.3-0.2 0.3-0.4 0.4L72.9 27l-0.3-0.6l0.6-0.3c0.2-0.1 0.4-0.2 0.6-0.1l0.9-0.4l-0.9-2L72.9 24 c0 0.3-0.2 0.3-0.4 0.4l-2.4 1.1c-0.2 0.1-0.4 0.2-0.6 0.1L68.6 26l0.9 2l0.9-0.4c0-0.3 0.2-0.3 0.4-0.4l0.8-0.3l0.3 0.6l-0.8 0.3 c-0.2 0.1-0.4 0.2-0.6 0.1l-0.9 0.4l0.9 2L71.4 29.8z M70.4 21.9l0.9 1.5l1.4-0.8c0-0.7-0.2-1.4-0.5-2c-0.3-0.6-0.8-1.1-1.3-1.2 c-0.5-0.2-1 0-1.4 0.3l-1.7 1.1c-0.5 0.3-1.1 0.6-1.2 1.3c-0.1 0.5 0.1 1.2 0.5 1.8c0.4 0.6 1 1.1 1.5 1.3l1.6-1l-0.9-1.5l-0.6 0.3 c-0.2 0.1-0.5 0.4-0.7 0.1c-0.2-0.3 0.2-0.5 0.4-0.6l1.9-1.2c0.2-0.1 0.5-0.4 0.7-0.1c0.2 0.3-0.2 0.5-0.4 0.6L70.4 21.9z M67.3 17.2l1.1 1.2l1-0.9c-0.1-0.8-0.4-1.4-1-2c-0.4-0.4-0.8-0.8-1.3-0.9c-0.6-0.1-0.9 0-1.4 0.4l-0.1 0.1 c-0.9 0.8-0.7 1.5-0.2 2.4c0.2 0.5 0.5 0.8 0 1.2c-0.2 0.1-0.4 0.2-0.6 0c-0.1-0.1-0.1-0.2-0.1-0.4c0-0.1 0.2-0.3 0.5-0.5l-1.2-1.3 l-1.1 1c0 0.7 0.5 1.4 0.9 2c1.1 1.3 2.1 1.1 2.9 0.3l0 0c0.2-0.2 0.4-0.4 0.5-0.6c0.1-0.2 0.1-0.4 0.1-0.7c-0.1-0.4-0.3-1-0.5-1.4 c-0.1-0.1-0.2-0.4-0.2-0.5c0-0.1 0.1-0.2 0.2-0.3c0.2-0.1 0.4-0.2 0.5 0C67.8 16.7 67.5 16.9 67.3 17.2L67.3 17.2z M61 11.8l1.4 1 l0.9-1.3c-0.3-0.6-0.7-1.2-1.3-1.7c-0.5-0.4-1.1-0.7-1.6-0.6c-0.5 0-0.9 0.4-1.2 0.8l-1.1 1.6c-0.4 0.5-0.7 1-0.6 1.7 c0.1 0.5 0.6 1 1.2 1.4c0.6 0.4 1.3 0.7 1.9 0.6l1.1-1.6l-1.4-1L60 13.4c-0.1 0.2-0.3 0.5-0.6 0.3c-0.3-0.2 0-0.5 0.1-0.7l1.3-1.8 c0.1-0.2 0.3-0.5 0.6-0.3c0.3 0.2 0 0.5-0.1 0.7L61 11.8z M55.4 10.8c-0.1 0.2-0.2 0.4-0.4 0.4l-0.5 0.9l1.9 1l0.5-0.9 c-0.1-0.2 0-0.4 0.1-0.6l1.2-2.3c0.1-0.2 0.2-0.4 0.4-0.4L59.1 8l-1.9-1l-0.5 0.9c0.1 0.2 0 0.4-0.1 0.6L55.4 10.8z M53.9 11.8 l1-2.6l-1.5-0.6l-0.3 0.9C53 9.8 52.9 10 52.5 9.9l-0.2-0.1l1.1-2.7c0.1-0.2 0.1-0.4 0.4-0.5l0.4-0.9l-2-0.8l-0.4 0.9 c0.1 0.2 0 0.4 0 0.6l-1 2.4c-0.1 0.2-0.1 0.4-0.4 0.5L50 10.2L53.9 11.8z M47.4 7.1l0.2 0C48 7.2 48.1 7.4 48 7.8 c-0.1 0.4-0.3 0.6-0.7 0.5l-0.2 0L47.4 7.1z M47.8 5l0.1 0c0.4 0.1 0.6 0.2 0.5 0.6c-0.1 0.4-0.3 0.5-0.7 0.4l-0.1 0L47.8 5z M47.5 9.6c0.5 0.1 1 0.2 1.5 0c0.4-0.2 0.6-0.7 0.7-1.2c0.1-0.7 0-1.3-0.7-1.5l0 0c0.7 0 1-0.4 1.2-1.1c0.1-0.5 0.1-1-0.3-1.3 c-0.3-0.3-0.8-0.4-1.3-0.5l-2.5-0.5l-0.2 1C46.1 4.5 46 4.7 46 4.9l-0.6 2.7c0 0.2-0.1 0.4-0.3 0.4l-0.2 1L47.5 9.6z M42.3 4.1 c0.2 0.1 0.2 0.4 0.2 0.6l-0.1 2.6c0 0.1 0 0.4-0.4 0.4c-0.3 0-0.3-0.3-0.3-0.4l0.1-2.6c0-0.2 0-0.4 0.2-0.6l0-1L39.9 3l0 1 C40 4.2 40 4.4 40 4.6l-0.1 2.3c0 0.6 0 1.1 0.5 1.5c0.4 0.4 1 0.5 1.5 0.5c0.5 0 1.1 0 1.5-0.4C44 8.1 44 7.7 44.1 7.1l0.1-2.3 c0-0.2 0-0.4 0.2-0.6l0-1l-2.1-0.1L42.3 4.1z M36.1 4.5l0.2 0c0.5-0.1 0.5 0.2 0.6 0.8C37 5.8 37 6.1 36.5 6.1l-0.2 0L36.1 4.5z M34.7 7.6c0 0.2 0.1 0.4-0.1 0.6l0.1 1L36.9 9l-0.1-1c-0.2-0.1-0.2-0.3-0.3-0.6l0.6-0.1c1.5-0.2 1.7-0.9 1.6-2l-0.1-0.5 c0-0.1 0-1.1-0.8-1.5c-0.4-0.3-1.1-0.2-1.6-0.1L34 3.5l0.1 1c0.2 0.1 0.2 0.3 0.3 0.5L34.7 7.6z M27.9 6.5l0.1 0 c0.4-0.1 0.5 0 0.7 0.4l0.7 2.1c0.1 0.4 0.1 0.6-0.3 0.7l-0.1 0L27.9 6.5z M25.6 6l0.3 1c0.2 0 0.3 0.2 0.4 0.4l0.9 2.6 c0.1 0.2 0.1 0.4-0.1 0.5l0.3 1l2.4-0.8c0.5-0.2 1-0.4 1.2-0.9c0.3-0.5 0.2-1 0-1.5l-0.7-2c-0.2-0.5-0.4-1-1-1.2 c-0.5-0.2-1 0-1.5 0.2L25.6 6z M26.8 11.8l-1.4-2.4l-1.4 0.8l0.5 0.8c0.2 0.3 0.3 0.6-0.1 0.8l-0.2 0.1l-1.4-2.6 c-0.1-0.2-0.2-0.4-0.1-0.6l-0.5-0.9l-1.9 1.1l0.5 0.9c0.3 0 0.3 0.2 0.4 0.4l1.3 2.3c0.1 0.2 0.2 0.4 0.1 0.6l0.5 0.9L26.8 11.8z M20.2 13.4l0.1 0.2c0.3 0.4 0.4 0.5 0 0.9l-0.1 0.1l-0.7-0.9l0.9-0.7L19.7 12l-0.9 0.7l-0.6-0.8l0.1-0.1c0.4-0.3 0.5-0.2 0.8 0.1 l0.1 0.1l1.3-1l-1.2-1.6l-3.4 2.6l0.6 0.8c0.3 0 0.4 0.2 0.5 0.3l1.6 2.1c0.1 0.2 0.3 0.3 0.2 0.6l0.6 0.8l3.4-2.6l-1.3-1.7 L20.2 13.4z M16.4 17.4c0.1 0.2 0.3 0.3 0.3 0.5l0.7 0.7l1.6-1.5l-0.7-0.7c-0.2 0.1-0.4-0.1-0.5-0.3l-1.8-1.9 c-0.1-0.2-0.3-0.3-0.3-0.5L14.9 13l-1.6 1.5l0.7 0.7c0.2-0.1 0.4 0.1 0.5 0.3L16.4 17.4z M14.1 16.6l-1.5-1.2l-2.6 3.3l0.8 0.6 c0.2-0.1 0.3 0 0.6 0.2l2 1.6c0.2 0.1 0.3 0.3 0.3 0.5l0.8 0.6l1.4-1.7L15 19.9c-0.2 0.1-0.4-0.1-0.6-0.2l-0.6-0.5l0.7-0.9l-0.9-0.7 L13 18.5l-0.9-0.7c0.2-0.3 0.3-0.4 0.5-0.3c0.1 0 0.3 0.2 0.5 0.3L14.1 16.6z M9.6 20.1c-0.7 0.3-1.3 0.9-1.7 1.6 c-0.3 0.5-0.5 1-0.4 1.5c0.1 0.5 0.5 0.8 0.9 1.1l1.9 1.1c0.5 0.3 1 0.6 1.7 0.3c0.5-0.2 0.8-0.7 1.1-1.1c0.4-0.6 0.7-1.4 0.6-2.2 l-2.4-1.4l-1 1.7l1 0.6l0.2-0.3l0.2 0.1c0.2 0.1 0.7 0.3 0.5 0.7c-0.2 0.3-0.5 0.1-0.5 0.1l-2.2-1.3c-0.2-0.1-0.5-0.3-0.3-0.6 c0.2-0.3 0.6 0 0.8 0.1l0.1 0.1l0.9-1.5L9.6 20.1z M5.2 27.6l-0.7 1.8l1 0.4c0.2-0.2 0.4-0.1 0.6 0l2.4 0.9c0.2 0.1 0.4 0.1 0.5 0.4 l1 0.4l0.6-1.7l-1-0.4c-0.2 0.2-0.4 0.1-0.6 0L8 29.1l0 0l2.8-0.1l0.6-1.6l-3.9-1.5c-0.2-0.1-0.4-0.1-0.5-0.4l-1-0.4l-0.7 1.7l1 0.4 c0.2-0.2 0.4-0.1 0.6 0L8 27.6l0 0L5.2 27.6z M7.8 33.8c0.2 0.1 0.4 0.1 0.5 0.3l1 0.2l0.5-2.1l-1-0.2c-0.2 0.2-0.4 0.1-0.6 0.1 l-2.5-0.6c-0.2-0.1-0.4-0.1-0.5-0.3l-1-0.2l-0.5 2.1l1 0.2C4.8 33 5 33.1 5.3 33.1L7.8 33.8z M4.3 37.2l0-0.2c0-0.4 0.2-0.5 0.6-0.5 c0.4 0 0.6 0.2 0.6 0.6l0 0.2L4.3 37.2z M6.6 37.4L6.6 37.4c0.1-0.6 0.3-0.6 0.7-0.5c1 0.1 1.2 0.1 1.5 0L9 35l-1-0.1 c-0.1 0.2-0.4 0.2-0.6 0.2l-0.3 0c-0.6-0.1-0.8 0.1-1 0.7l0 0c-0.1-0.7-0.6-0.9-1.3-1c-0.5 0-1 0.1-1.3 0.5 c-0.3 0.4-0.3 0.9-0.3 1.4l-0.2 2.5l1 0.1C4.1 39 4.3 39 4.5 39.1l2.6 0.2c0.2 0 0.4 0 0.5 0.2l1 0.1l0.2-2.2l-1-0.1 c-0.2 0.2-0.4 0.2-0.6 0.1L6.6 37.4z M4.2 43l0-0.2c0-0.5 0.3-0.5 0.8-0.6c0.5 0 0.8-0.1 0.9 0.5l0 0.2L4.2 43z M7.3 44.6 c0.2 0 0.4-0.1 0.6 0.2l1-0.1l-0.2-2.2l-1 0.1c-0.1 0.2-0.3 0.2-0.6 0.2l0-0.6c-0.1-1.5-0.8-1.8-1.9-1.7l-0.5 0 c-0.1 0-1.1 0-1.5 0.7C2.9 41.6 3 42.2 3 42.7L3.2 45l1-0.1c0.1-0.2 0.3-0.2 0.5-0.2L7.3 44.6z M5.6 47.9l-0.3-1.6l-1.3 0.3 c-0.3 0.7-0.3 1.4-0.2 2.2c0.1 0.5 0.3 1.1 0.7 1.4c0.4 0.4 0.8 0.4 1.4 0.3l0.1 0c1.2-0.3 1.3-0.9 1.4-2c0-0.5 0-0.9 0.6-1 c0.2 0 0.5 0 0.5 0.2c0 0.1 0 0.3-0.1 0.4c-0.1 0.1-0.4 0.1-0.7 0.2l0.4 1.7l1.5-0.3c0.3-0.7 0.3-1.5 0.2-2.2 c-0.4-1.7-1.3-2-2.3-1.8l0 0C7 45.8 6.7 45.9 6.5 46c-0.2 0.1-0.4 0.3-0.4 0.5c-0.2 0.4-0.2 1-0.2 1.4c0 0.2 0 0.4-0.1 0.5 c-0.1 0.1-0.2 0.1-0.3 0.2c-0.2 0-0.4 0-0.4-0.3C4.9 48.1 5.2 48 5.5 48L5.6 47.9z" class="style2"/></svg>